<svg width="60" height="60" viewBox="0 0 60 60" fill="none" xmlns="http://www.w3.org/2000/svg">
<path d="M47.5471 48.2781V32.5029M29.9993 48.2781V37.7421M12.4512 48.2781V27.2637" stroke="#287D7E" stroke-width="3.6" stroke-linecap="round" stroke-linejoin="round"/>
<path d="M33.8989 25.5296L43.7574 21.7102" stroke="#287D7E" stroke-width="3.6" stroke-linecap="round" stroke-linejoin="round"/>
<path d="M26.5876 24.5276L15.8081 16.2668" stroke="#287D7E" stroke-width="3.6" stroke-linecap="round" stroke-linejoin="round"/>
<path d="M32.8645 29.5176C34.4468 27.9353 34.4468 25.3697 32.8645 23.7874C31.2822 22.205 28.7166 22.205 27.1342 23.7874C25.5519 25.3697 25.5519 27.9353 27.1342 29.5176C28.7166 31.1 31.2822 31.1 32.8645 29.5176Z" stroke="#287D7E" stroke-width="3.6" stroke-linecap="round" stroke-linejoin="round"/>
<path d="M15.3179 16.8066C16.9002 15.2243 16.9002 12.6588 15.3179 11.0764C13.7355 9.49406 11.17 9.49406 9.58765 11.0764C8.00529 12.6588 8.00529 15.2243 9.58765 16.8066C11.17 18.389 13.7355 18.389 15.3179 16.8066Z" stroke="#287D7E" stroke-width="3.6" stroke-linecap="round" stroke-linejoin="round"/>
<path d="M50.4133 23.199C51.9956 21.6166 51.9956 19.0511 50.4133 17.4688C48.831 15.8864 46.2654 15.8864 44.6831 17.4688C43.1008 19.0511 43.1008 21.6166 44.6831 23.199C46.2654 24.7814 48.831 24.7814 50.4133 23.199Z" stroke="#287D7E" stroke-width="3.6" stroke-linecap="round" stroke-linejoin="round"/>
</svg>
