<svg width="40" height="40" viewBox="0 0 40 40" fill="none" xmlns="http://www.w3.org/2000/svg">
<path d="M24.0305 9.14976C23.2371 9.0032 22.5085 9.50951 22.3574 10.284C22.2064 11.0585 22.7143 11.8146 23.4861 11.9662C25.8099 12.4192 27.6041 14.2179 28.0589 16.5497C28.1884 17.2209 28.7793 17.7105 29.4598 17.7105C29.5511 17.7105 29.6424 17.7022 29.7354 17.6856C30.5072 17.5307 31.0151 16.7762 30.8641 16.0001C30.1852 12.5174 27.5046 9.82763 24.0305 9.14976Z" fill="#287D7E"/>
<path d="M23.9268 3.34671C23.555 3.29342 23.1815 3.40334 22.8844 3.63984C22.579 3.87968 22.3881 4.22611 22.3466 4.61418C22.2586 5.39864 22.8246 6.10815 23.6081 6.19642C29.0109 6.79934 33.2102 11.0081 33.8177 16.4277C33.8991 17.1539 34.5082 17.7019 35.2352 17.7019C35.29 17.7019 35.3431 17.6985 35.3979 17.6919C35.778 17.6502 36.1166 17.462 36.3556 17.1622C36.593 16.8624 36.7009 16.4894 36.6577 16.1079C35.9008 9.34593 30.6674 4.09786 23.9268 3.34671Z" fill="#287D7E"/>
<path fill-rule="evenodd" clip-rule="evenodd" d="M18.3862 21.6206C25.0347 28.2673 26.543 20.5779 30.7761 24.808C34.8571 28.8879 37.2027 29.7053 32.0321 34.8745C31.3844 35.395 27.2693 41.6571 12.8077 27.1994C-1.6558 12.74 4.60264 8.62074 5.12328 7.97325C10.3064 2.78974 11.1098 5.14897 15.1908 9.22888C19.4239 13.4608 11.7378 14.974 18.3862 21.6206Z" fill="#287D7E"/>
</svg>
