<svg width="40" height="40" viewBox="0 0 40 40" fill="none" xmlns="http://www.w3.org/2000/svg">
<path d="M29.9636 7.06888H32.2934C32.6092 7.06888 32.8648 6.8133 32.8648 6.49745C32.8648 6.18161 32.6092 5.92603 32.2934 5.92603H29.9636C29.6477 5.92603 29.3922 6.18161 29.3922 6.49745C29.3922 6.8133 29.6477 7.06888 29.9636 7.06888Z" fill="#317B74"/>
<path d="M35.2022 5.92603C34.8863 5.92603 34.6307 6.18161 34.6307 6.49745C34.6307 6.8133 34.8863 7.06888 35.2022 7.06888C36.5883 7.06888 37.7161 8.19667 37.7161 9.58283C37.7161 9.71585 37.7161 12.1281 37.7161 12.0694H33.6642C33.3434 12.0694 33.0828 11.8088 33.0828 11.4885C33.0828 11.1677 33.3434 10.907 33.6642 10.907H36.2496C36.5655 10.907 36.821 10.6515 36.821 10.3356C36.821 10.0198 36.5655 9.76419 36.2496 9.76419H33.6642C32.7133 9.76419 31.9399 10.5376 31.9399 11.4885C31.9399 12.4389 32.7133 13.2123 33.6642 13.2123H37.7161C37.7161 13.4129 37.7161 16.3857 37.7161 16.3256H33.6642C33.3434 16.3256 33.0828 16.065 33.0828 15.7441C33.0828 15.4238 33.3434 15.1632 33.6642 15.1632H36.3796C36.6955 15.1632 36.9511 14.9076 36.9511 14.5918C36.9511 14.2759 36.6955 14.0203 36.3796 14.0203H33.6642C32.7133 14.0203 31.9399 14.7938 31.9399 15.7441C31.9399 16.695 32.7133 17.4684 33.6642 17.4684H37.7161C37.7161 17.669 37.7161 20.6419 37.7161 20.5817H33.6642C33.3434 20.5817 33.0828 20.3211 33.0828 20.0002C33.0828 19.6799 33.3434 19.4193 33.6642 19.4193H36.4483C36.7641 19.4193 37.0197 19.1637 37.0197 18.8479C37.0197 18.532 36.7641 18.2765 36.4483 18.2765H33.6642C32.7133 18.2765 31.9399 19.0499 31.9399 20.0002C31.9399 20.9511 32.7133 21.7246 33.6642 21.7246H37.7161C37.7161 21.9251 37.7161 24.898 37.7161 24.8378H33.6642C33.3434 24.8378 33.0828 24.5772 33.0828 24.2564C33.0828 23.9361 33.3434 23.6755 33.6642 23.6755H36.3707C36.6866 23.6755 36.9421 23.4199 36.9421 23.104C36.9421 22.7882 36.6866 22.5326 36.3707 22.5326H33.6642C32.7133 22.5326 31.9399 23.306 31.9399 24.2564C31.9399 25.2073 32.7133 25.9807 33.6642 25.9807H37.7161C37.7161 26.1813 37.7161 29.1684 37.7161 29.094H33.6642C33.3434 29.094 33.0828 28.8334 33.0828 28.5125C33.0828 28.1916 33.3434 27.931 33.6642 27.931H36.4181C36.734 27.931 36.9896 27.6755 36.9896 27.3596C36.9896 27.0438 36.734 26.7882 36.4181 26.7882H33.6642C32.7133 26.7882 31.9399 27.5616 31.9399 28.5125C31.9399 29.4634 32.7133 30.2368 33.6642 30.2368H37.7161V30.4176C37.7161 31.8038 36.5883 32.9316 35.2022 32.9316H4.8015C3.41534 32.9316 2.28756 31.8038 2.28756 30.4177V9.58283C2.28756 8.19667 3.41534 7.06888 4.8015 7.06888H27.6347C27.9505 7.06888 28.2061 6.8133 28.2061 6.49745C28.2061 6.18161 27.9505 5.92603 27.6347 5.92603H4.8015C2.78532 5.92603 1.1447 7.56665 1.1447 9.58283V30.4177C1.1447 32.4338 2.78532 34.0745 4.8015 34.0745H35.2022C37.2184 34.0745 38.859 32.4338 38.859 30.4177C38.859 28.69 38.859 9.44597 38.859 9.58283C38.859 7.56665 37.2184 5.92603 35.2022 5.92603Z" fill="#317B74"/>
<path d="M26.3032 10.7833C26.3032 11.0992 26.5588 11.3548 26.8747 11.3548H28.4294V28.6466H5.71843V11.3548H20.9048C21.2207 11.3548 21.4762 11.0992 21.4762 10.7833C21.4762 10.4675 21.2207 10.2119 20.9048 10.2119H5.14701C4.83116 10.2119 4.57558 10.4675 4.57558 10.7833V29.2181C4.57558 29.5339 4.83116 29.7895 5.14701 29.7895H29.0008C29.3166 29.7895 29.5722 29.5339 29.5722 29.2181V10.7833C29.5722 10.4675 29.3166 10.2119 29.0008 10.2119H26.8747C26.5588 10.2119 26.3032 10.4675 26.3032 10.7833Z" fill="#317B74"/>
<path d="M24.8057 11.3548C25.1215 11.3548 25.3771 11.0992 25.3771 10.7833C25.3771 10.4675 25.1215 10.2119 24.8057 10.2119H22.8542C22.5384 10.2119 22.2828 10.4675 22.2828 10.7833C22.2828 11.0992 22.5384 11.3548 22.8542 11.3548H24.8057Z" fill="#317B74"/>
<path d="M10.868 22.5213C10.3786 22.5213 9.8407 22.3695 9.42887 22.1156L9.11246 21.9209L8.7196 23.2233L8.89594 23.3405C9.32563 23.6268 10.1113 23.8271 10.8067 23.8271C12.666 23.8271 13.4981 22.6904 13.4981 21.5643C13.4981 20.2099 12.5193 19.6497 11.5622 19.2797C10.5561 18.8907 10.3792 18.629 10.3792 18.2222C10.3792 17.879 10.6431 17.4783 11.3876 17.4783C11.9093 17.4783 12.3111 17.6368 12.5561 17.7696L12.8541 17.9315L13.2827 16.6631L13.0773 16.547C12.8312 16.4069 12.2882 16.1731 11.4183 16.1731C9.96569 16.1731 8.91156 17.0777 8.91156 18.3243C8.91156 19.3366 9.56725 20.0609 10.9082 20.5369C11.8429 20.8963 12.0198 21.2004 12.0198 21.6357C12.0198 22.1904 11.589 22.5213 10.868 22.5213Z" fill="#317B74"/>
<path d="M15.8952 22.5213C15.4052 22.5213 14.8673 22.3695 14.4555 22.1156L14.1391 21.9209L13.7468 23.2233L13.9231 23.3405C14.3528 23.6268 15.1385 23.8271 15.8338 23.8271C17.6926 23.8271 18.5247 22.6904 18.5247 21.5643C18.5247 20.2099 17.5459 19.6497 16.5888 19.2797C15.5827 18.8907 15.4058 18.629 15.4058 18.2222C15.4058 17.879 15.6703 17.4783 16.4147 17.4783C16.9359 17.4783 17.3377 17.6368 17.5827 17.7696L17.8807 17.9315L18.3104 16.663L18.1045 16.5464C17.8578 16.4069 17.3143 16.1731 16.4454 16.1731C14.9929 16.1731 13.9382 17.0777 13.9382 18.3243C13.9382 19.336 14.5939 20.0609 15.9354 20.5369C16.8695 20.8963 17.0464 21.2004 17.0464 21.6357C17.0464 22.1904 16.6162 22.5213 15.8952 22.5213Z" fill="#317B74"/>
<path d="M19.4107 16.3808L19.168 16.4177V23.6738L19.4213 23.7028C19.9046 23.7581 20.457 23.786 21.0642 23.786C23.9335 23.786 25.375 22.2611 25.375 19.8418C25.375 17.648 24.0393 16.2346 21.3387 16.2346C20.6975 16.2346 20.0491 16.2837 19.4107 16.3808ZM20.6261 22.4829V17.5549C20.808 17.5298 21.0558 17.5092 21.38 17.5092C22.97 17.5092 23.8863 18.289 23.8756 19.8724C23.8756 21.5929 22.9632 22.5019 21.2377 22.5019C20.9883 22.5019 20.7857 22.4958 20.6261 22.4829Z" fill="#317B74"/>
</svg>
