<svg width="48" height="48" viewBox="0 0 48 48" fill="none" xmlns="http://www.w3.org/2000/svg">
<path d="M34.3037 10.3622C34.3037 9.61671 33.6992 9.01221 32.9537 9.01221H19.0697C18.3242 9.01221 17.7197 9.61671 17.7197 10.3622C17.7197 11.1077 18.3242 11.7122 19.0697 11.7122H32.9537C33.6992 11.7137 34.3037 11.1077 34.3037 10.3622Z" fill="white"/>
<path d="M19.0697 14.8411C18.3242 14.8411 17.7197 15.4456 17.7197 16.1911C17.7197 16.9366 18.3242 17.5411 19.0697 17.5411H25.7957C26.5412 17.5411 27.1457 16.9366 27.1457 16.1911C27.1457 15.4456 26.5412 14.8411 25.7957 14.8411H19.0697Z" fill="white"/>
<path d="M28.6054 39.2387H8.25039C4.20489 39.2387 4.16589 32.9402 8.25039 32.9402H25.5454C26.2909 32.9402 26.8954 32.3357 26.8954 31.5902C26.8954 30.8447 26.2909 30.2402 25.5454 30.2402H13.2574V4.35018H36.4654C37.5649 4.35018 38.4604 5.24568 38.4604 6.34518V20.8502C38.4604 21.5957 39.0649 22.2002 39.8104 22.2002C40.5559 22.2002 41.1604 21.5957 41.1604 20.8502V6.34518C41.1604 3.75468 39.0544 1.64868 36.4639 1.64868H8.25039C5.02539 1.65018 2.40039 4.27518 2.40039 7.50018V36.0902C2.40039 39.3152 5.02539 41.9402 8.25039 41.9402H28.6054C29.3509 41.9402 29.9554 41.3357 29.9554 40.5902C29.9554 39.8447 29.3509 39.2387 28.6054 39.2387ZM5.10039 7.50018C5.10039 5.76318 6.51339 4.35018 8.25039 4.35018H10.5589V30.2387C8.67639 30.2387 6.76689 30.0977 5.10039 31.1582V7.50018Z" fill="white"/>
<path d="M43.5273 38.0163C44.8653 36.5358 45.6032 34.6173 45.6032 32.6163C45.6032 30.4518 44.7588 28.4148 43.2243 26.8848C41.6958 25.3578 39.6707 24.5193 37.5197 24.5193C37.5107 24.5193 37.5033 24.5193 37.4943 24.5193C35.3388 24.5193 33.3137 25.3593 31.7852 26.8848C30.2522 28.4163 29.4062 30.4518 29.4062 32.6163C29.4062 34.6158 30.1442 36.5328 31.4822 38.0133C32.1392 38.7438 32.5007 39.6468 32.5007 40.5528C32.4962 41.4678 32.4993 42.3813 32.4993 43.2963C32.4993 44.9793 33.8702 46.3503 35.5532 46.3503H39.4578C41.1408 46.3503 42.5118 44.9793 42.5118 43.2963C42.5118 42.3813 42.5148 41.4663 42.5103 40.5528C42.5103 39.6453 42.8718 38.7438 43.5273 38.0163ZM32.1077 32.6163C32.1077 31.1733 32.6702 29.8158 33.6933 28.7943C34.7118 27.7773 36.0602 27.2193 37.4987 27.2193H37.5153C38.9493 27.2193 40.2977 27.7773 41.3162 28.7943C42.3392 29.8158 42.9018 31.1733 42.9018 32.6163C42.9018 33.9483 42.4128 35.2218 41.5218 36.2073C40.6728 37.1508 40.1162 38.2833 39.9047 39.4728H35.1062C34.8947 38.2848 34.3382 37.1538 33.4877 36.2058C32.5967 35.2203 32.1077 33.9468 32.1077 32.6163ZM39.4578 43.6503H35.5532C35.3582 43.6503 35.2007 43.4928 35.2007 43.2978V42.1773H39.8102V43.2978C39.8102 43.4913 39.6528 43.6503 39.4578 43.6503Z" fill="white"/>
</svg>
