<svg width="48" height="48" viewBox="0 0 48 48" fill="none" xmlns="http://www.w3.org/2000/svg">
<path d="M43.7812 14.1556H40.8815C39.9318 11.8965 38.5171 9.81342 36.7253 8.07652C33.9088 5.34642 30.2624 3.56752 26.4579 3.06745C20.1536 2.2388 13.9747 4.65333 9.92972 9.52627C8.76891 10.9247 7.82428 12.4897 7.12697 14.1556H4.21875C1.89253 14.1556 0 16.0482 0 18.3744V23.9994C0 26.3256 1.89253 28.2181 4.21875 28.2181H9.97969L9.37725 26.375C7.62169 21.0038 8.61188 15.5175 12.0938 11.3226C15.5178 7.19761 20.7507 5.15405 26.0914 5.85595C32.7809 6.73523 38.1975 11.9888 39.2633 18.6317C39.9906 23.1646 38.7217 27.7451 35.782 31.1988C32.8356 34.6605 28.5491 36.6494 24.0217 36.6556C21.6835 36.6588 19.7813 38.5515 19.7813 40.8744C19.7813 43.2006 21.6739 45.0931 24.0001 45.0931C26.3263 45.0931 28.2188 43.2006 28.2188 40.8744V38.9745C31.965 38.0849 35.3707 36.0214 37.9238 33.0217C39.164 31.5648 40.1514 29.955 40.8756 28.218H43.7812C46.1075 28.218 48 26.3255 48 23.9993V18.3743C48 16.0482 46.1075 14.1556 43.7812 14.1556ZM6.19359 25.4056H4.21875C3.44334 25.4056 2.8125 24.7748 2.8125 23.9994V18.3744C2.8125 17.599 3.44334 16.9681 4.21875 16.9681H6.21038C6.16031 17.1789 6.114 17.3908 6.07162 17.6032C5.55834 20.175 5.60006 22.7919 6.19359 25.4056ZM25.4062 40.8744C25.4062 41.6498 24.7754 42.2806 24 42.2806C23.2246 42.2806 22.5938 41.6498 22.5938 40.8744C22.5938 40.1 23.236 39.4692 24.0254 39.4681C24.488 39.4675 24.9488 39.4493 25.4062 39.4141V40.8744ZM45.1875 23.9994C45.1875 24.7748 44.5567 25.4056 43.7812 25.4056H41.7887C42.3471 23.0572 42.4327 20.6331 42.0402 18.1861C41.9747 17.7776 41.8933 17.3714 41.7983 16.9681H43.7812C44.5567 16.9681 45.1875 17.599 45.1875 18.3744V23.9994Z" fill="white"/>
<path d="M16.9688 21.1868C16.9688 20.4101 17.5983 19.7805 18.375 19.7805C19.1517 19.7805 19.7812 20.4101 19.7812 21.1868C19.7812 21.9634 19.1517 22.593 18.375 22.593C17.5983 22.593 16.9688 21.9634 16.9688 21.1868Z" fill="white"/>
<path d="M22.5938 21.1868C22.5938 20.4101 23.2233 19.7805 24 19.7805C24.7767 19.7805 25.4062 20.4101 25.4062 21.1868C25.4062 21.9634 24.7767 22.593 24 22.593C23.2233 22.593 22.5938 21.9634 22.5938 21.1868Z" fill="white"/>
<path d="M28.2188 21.1868C28.2188 20.4101 28.8483 19.7805 29.625 19.7805C30.4017 19.7805 31.0312 20.4101 31.0312 21.1868C31.0312 21.9634 30.4017 22.593 29.625 22.593C28.8483 22.593 28.2188 21.9634 28.2188 21.1868Z" fill="white"/>
<path d="M11.3438 31.0305V33.843H24C30.9787 33.843 36.6562 28.1654 36.6562 21.1868C36.6562 14.2081 30.9787 8.53052 24 8.53052C17.0213 8.53052 11.3438 14.2081 11.3438 21.1868C11.3438 24.031 12.299 26.7811 14.0465 29.0045C13.7075 30.1898 12.625 31.0305 11.3438 31.0305ZM24 11.343C29.4278 11.343 33.8438 15.7589 33.8438 21.1868C33.8438 26.6146 29.4278 31.0305 24 31.0305H16.2165C16.6195 30.3332 16.8704 29.5525 16.9451 28.7363L17.0003 28.1342L16.6013 27.68C15.0247 25.8849 14.1562 23.5789 14.1562 21.1868C14.1562 15.7589 18.5722 11.343 24 11.343Z" fill="white"/>
</svg>
