<svg width="40" height="40" viewBox="0 0 40 40" fill="none" xmlns="http://www.w3.org/2000/svg">
<path fill-rule="evenodd" clip-rule="evenodd" d="M14.2503 33.5725C15.603 33.8298 16.627 35.0197 16.627 36.4468C16.627 38.0616 15.316 39.3725 13.7013 39.3725C12.0865 39.3725 10.7755 38.0616 10.7755 36.4468C10.7755 35.0197 11.7996 33.8298 13.1523 33.5725V28.7393C13.1523 28.4363 13.3982 28.1903 13.7013 28.1903C14.0043 28.1903 14.2503 28.4363 14.2503 28.7393V33.5725ZM13.7013 34.619C12.6925 34.619 11.8735 35.438 11.8735 36.4468C11.8735 37.4555 12.6925 38.2745 13.7013 38.2745C14.71 38.2745 15.529 37.4555 15.529 36.4468C15.529 35.438 14.71 34.619 13.7013 34.619ZM33.1079 13.7857H28.8108C28.5078 13.7857 28.2618 13.5397 28.2618 13.2367C28.2618 12.9337 28.5078 12.6877 28.8108 12.6877H33.1079C33.3651 11.335 34.555 10.311 35.9821 10.311C37.5969 10.311 38.9079 11.622 38.9079 13.2367C38.9079 14.8514 37.5969 16.1624 35.9821 16.1624C34.555 16.1624 33.3651 15.1384 33.1079 13.7857ZM34.1545 13.2367C34.1545 14.2454 34.9734 15.0644 35.9821 15.0644C36.9909 15.0644 37.8098 14.2454 37.8098 13.2367C37.8098 12.2279 36.9909 11.409 35.9821 11.409C34.9734 11.409 34.1545 12.2279 34.1545 13.2367ZM33.0726 33.447L24.1647 24.539C23.9504 24.3249 23.9504 23.9769 24.1647 23.7627C24.3789 23.5484 24.7268 23.5484 24.941 23.7627L33.8408 32.6624C34.3143 32.3327 34.8898 32.1393 35.5099 32.1393C37.1247 32.1393 38.4357 33.4503 38.4357 35.0651C38.4357 36.6798 37.1247 37.9908 35.5099 37.9908C33.8952 37.9908 32.5842 36.6798 32.5842 35.0651C32.5842 34.467 32.764 33.9106 33.0726 33.447ZM35.5099 33.2373C34.5012 33.2373 33.6822 34.0563 33.6822 35.0651C33.6822 36.0738 34.5012 36.8928 35.5099 36.8928C36.5187 36.8928 37.3377 36.0738 37.3377 35.0651C37.3377 34.0563 36.5187 33.2373 35.5099 33.2373ZM13.7013 25.846C6.75705 25.846 1.09203 20.1809 1.09203 13.2367C1.09203 6.29246 6.75705 0.627441 13.7013 0.627441C20.6455 0.627441 26.3105 6.29246 26.3105 13.2367C26.3105 20.1809 20.6455 25.846 13.7013 25.846ZM4.94073 5.78336C3.33783 7.66376 2.32732 10.0632 2.20301 12.6877H7.08238C7.13407 10.5325 7.48795 8.52289 8.06159 6.80579C6.91752 6.53834 5.86716 6.19246 4.94073 5.78336ZM11.0585 2.03254C9.02858 2.51262 7.20332 3.53277 5.74395 4.93183C6.5605 5.26532 7.46912 5.54776 8.44897 5.76956C8.80214 4.92187 9.21297 4.16619 9.66889 3.52493C10.0948 2.92572 10.5616 2.4243 11.0585 2.03254ZM21.6586 4.93183C20.1992 3.53285 18.3741 2.5127 16.3443 2.03262C16.8412 2.42438 17.308 2.92572 17.7341 3.52485C18.1901 4.16611 18.601 4.92172 18.9543 5.7694C19.9338 5.5476 20.8422 5.26525 21.6586 4.93183ZM25.1995 12.6877C25.0752 10.0632 24.0647 7.66376 22.4618 5.78336C21.5356 6.19238 20.4856 6.53819 19.3419 6.80556C19.9157 8.52274 20.2699 10.5324 20.3215 12.6877H25.1995ZM22.3647 20.8024C24.0239 18.9056 25.0727 16.4628 25.1995 13.7857H20.3215C20.2684 16.0012 19.8957 18.0627 19.2934 19.8109C20.4159 20.0707 21.449 20.406 22.3647 20.8024ZM16.3443 24.4408C18.3212 23.9732 20.104 22.9933 21.5438 21.6501C20.7404 21.33 19.851 21.0587 18.8947 20.845C18.5551 21.6357 18.1647 22.3431 17.7341 22.9485C17.308 23.5477 16.8412 24.049 16.3443 24.4408ZM5.85924 21.6507C7.29901 22.9936 9.08175 23.9733 11.0585 24.4408C10.5616 24.0491 10.0948 23.5477 9.66889 22.9485C9.23846 22.3431 8.84826 21.6358 8.50881 20.8453C7.55226 21.0592 6.66261 21.3306 5.85924 21.6507ZM2.20301 13.7857C2.32983 16.463 3.37885 18.906 5.03822 20.8029C5.95383 20.4065 6.98724 20.0711 8.11022 19.8111C7.50803 18.0629 7.13548 16.0012 7.08238 13.7857H2.20301ZM9.14089 7.02948C8.57728 8.66783 8.2325 10.6056 8.18065 12.6877H13.1523V7.42313C11.7455 7.39474 10.3969 7.25772 9.14089 7.02948ZM13.1523 2.19638C12.1885 2.39536 11.311 3.11019 10.5638 4.16117C10.1873 4.69066 9.84583 5.3043 9.54646 5.98728C10.6806 6.18179 11.8919 6.29858 13.1523 6.32493V2.19638ZM17.8568 5.98713C17.5574 5.30423 17.2158 4.69066 16.8392 4.16125C16.0918 3.11019 15.2141 2.39536 14.2503 2.1963V6.32493C15.5109 6.29858 16.7225 6.18172 17.8568 5.98713ZM19.2232 12.6877C19.1715 10.6056 18.8264 8.66768 18.2625 7.02932C17.0063 7.25764 15.6573 7.39474 14.2503 7.42313V12.6877H19.2232ZM18.2118 19.5891C18.8057 17.9205 19.1699 15.9296 19.2232 13.7857H14.2503V19.2041C15.6385 19.2321 16.97 19.366 18.2118 19.5891ZM14.2503 24.277C15.2141 24.078 16.0918 23.3632 16.8392 22.3121C17.1893 21.82 17.509 21.2552 17.7929 20.6296C16.677 20.4413 15.4873 20.3282 14.2503 20.3023V24.277ZM9.61054 20.6298C9.8943 21.2554 10.2139 21.8201 10.5638 22.3122C11.311 23.3632 12.1885 24.078 13.1523 24.277V20.3023C11.9155 20.3282 10.7261 20.4415 9.61054 20.6298ZM8.18065 13.7857C8.23399 15.9296 8.59806 17.9206 9.19171 19.5892C10.4331 19.3662 11.7643 19.2321 13.1523 19.2041V13.7857H8.18065Z" fill="#317B74"/>
</svg>
