<svg width="18" height="18" viewBox="0 0 18 18" fill="none" xmlns="http://www.w3.org/2000/svg">
<path d="M8.25191 15C8.25191 15.4142 8.58777 15.75 9.00191 15.75C9.41614 15.75 9.75191 15.4142 9.75191 15V9.74992H15.0019C15.4161 9.74992 15.7519 9.41415 15.7519 8.99992C15.7519 8.5857 15.4161 8.24992 15.0019 8.24992H9.75191V3C9.75191 2.58579 9.41614 2.25 9.00191 2.25C8.58777 2.25 8.25191 2.58579 8.25191 3V8.24992H3.00195C2.58774 8.24992 2.25195 8.5857 2.25195 8.99992C2.25195 9.41415 2.58774 9.74992 3.00195 9.74992H8.25191V15Z" fill="white"/>
</svg>
