<svg width="41" height="40" viewBox="0 0 41 40" fill="none" xmlns="http://www.w3.org/2000/svg">
<path d="M19.5927 3.82092C20.0269 2.77683 21.506 2.77683 21.9403 3.82092L25.7584 13.0007C25.9414 13.4408 26.3554 13.7416 26.8306 13.7797L36.7409 14.5742C37.868 14.6645 38.3251 16.0712 37.4663 16.8069L29.9157 23.2748C29.5537 23.5849 29.3955 24.0715 29.5062 24.5352L31.813 34.206C32.0754 35.306 30.8788 36.1753 29.9137 35.5859L21.4291 30.4035C21.0223 30.155 20.5107 30.155 20.1038 30.4035L11.6192 35.5859C10.6542 36.1753 9.45759 35.306 9.71997 34.206L12.0268 24.5352C12.1374 24.0715 11.9793 23.5849 11.6173 23.2748L4.06665 16.8069C3.20785 16.0712 3.66491 14.6645 4.79209 14.5742L14.7024 13.7797C15.1776 13.7416 15.5915 13.4408 15.7746 13.0007L19.5927 3.82092Z" fill="#FF9D01"/>
</svg>
