<svg width="40" height="40" viewBox="0 0 40 40" fill="none" xmlns="http://www.w3.org/2000/svg">
<path fill-rule="evenodd" clip-rule="evenodd" d="M10.7987 31.7106H3.47514C1.86612 31.7106 0.549026 30.3935 0.549026 28.7845V12.976C0.549026 11.367 1.86612 10.0498 3.47514 10.0498H19.3528C19.6991 10.0498 19.9802 10.331 19.9802 10.6773C19.9802 11.0236 19.6991 11.3047 19.3528 11.3047H3.47514C2.55616 11.3047 1.80393 12.0571 1.80393 12.976V28.7845C1.80393 29.7035 2.55616 30.4557 3.47514 30.4557H28.7705C29.6894 30.4557 30.4417 29.7035 30.4417 28.7845V24.7803C30.4417 24.4339 30.7228 24.1528 31.0691 24.1528C31.4155 24.1528 31.6966 24.4339 31.6966 24.7803V28.7845C31.6966 30.3935 30.3795 31.7106 28.7705 31.7106H21.449V34.1076H24.3192C25.776 34.1076 26.9065 35.136 26.9065 36.2993V37.8655C26.9065 38.2121 26.6257 38.493 26.2791 38.493H5.96856C5.62205 38.493 5.3411 38.2121 5.3411 37.8655V36.2993C5.3411 35.136 6.47161 34.1076 7.9284 34.1076H10.7987V31.7106ZM20.1941 31.7106H12.0536V34.1076H20.1941V31.7106ZM6.59601 37.2381H25.6516V36.2993C25.6516 35.7406 25.019 35.3625 24.3192 35.3625H7.9284C7.22863 35.3625 6.59601 35.7406 6.59601 36.2993V37.2381ZM3.72526 13.2281V26.5847H28.5204V24.7044C28.5204 24.3582 28.8016 24.077 29.1479 24.077C29.4941 24.077 29.7753 24.3582 29.7753 24.7044V27.2122C29.7753 27.5587 29.4944 27.8396 29.1479 27.8396H3.09781C2.75122 27.8396 2.47036 27.5587 2.47036 27.2122V12.9192C2.47036 12.396 2.89522 11.9732 3.41836 11.9732H19.3528C19.6991 11.9732 19.9802 12.2543 19.9802 12.6007C19.9802 12.9469 19.6991 13.2281 19.3528 13.2281H3.72526ZM30.5108 1.55784L39.0708 5.22726C39.3014 5.32616 39.451 5.55298 39.451 5.80396V12.7228C39.451 17.8427 35.7253 22.266 30.684 23.1443L30.3733 23.1994C30.3008 23.2124 30.2264 23.2124 30.1539 23.1994L29.8432 23.1443C24.8041 22.266 21.0783 17.8428 21.0783 12.7228V5.80396C21.0783 5.55298 21.2278 5.32616 21.4584 5.22726L30.0163 1.55784C30.1742 1.49016 30.3529 1.49016 30.5108 1.55784ZM30.2636 2.81722L22.3332 6.21761V12.7228C22.3332 17.2359 25.6178 21.1346 30.0599 21.9082C30.0606 21.9083 30.0613 21.9084 30.062 21.9085L30.2636 21.9444L30.4653 21.9085C30.466 21.9084 30.4668 21.9083 30.4675 21.9082C34.9114 21.1346 38.1961 17.2359 38.1961 12.7228V6.21761L30.2636 2.81722ZM30.5108 4.23149L36.6121 6.84577C36.8428 6.94459 36.9924 7.17149 36.9924 7.42247V12.7228C36.9924 16.6082 34.1864 19.9788 30.3809 20.7026C30.3034 20.7173 30.2238 20.7173 30.1463 20.7025C26.343 19.9788 23.5369 16.6082 23.5369 12.7228V7.42247C23.5369 7.17149 23.6864 6.94467 23.9171 6.84577L30.0164 4.23149C30.1743 4.16388 30.3529 4.16388 30.5108 4.23149ZM30.2637 5.49086L24.7918 7.8362V12.7228C24.7918 15.968 27.1075 18.7882 30.2637 19.4464C33.4217 18.7882 35.7375 15.9681 35.7375 12.7228V7.83628L30.2637 5.49086ZM33.2488 14.4234C33.0224 14.6855 32.6259 14.7145 32.3639 14.4881C32.1017 14.2618 32.0728 13.8652 32.2991 13.6032L33.5191 12.1907L32.2991 10.7783C32.0728 10.5162 32.1017 10.1196 32.3639 9.8933C32.6259 9.66694 33.0224 9.69596 33.2488 9.958L34.8231 11.7806C35.0266 12.0161 35.0266 12.3653 34.8231 12.6009L33.2488 14.4234ZM28.1866 13.6108C28.4088 13.8764 28.3734 14.2724 28.1078 14.4946C27.8421 14.7167 27.4461 14.6815 27.2239 14.4158L25.6997 12.5932C25.5049 12.3603 25.5049 12.0211 25.6997 11.7882L27.2239 9.96561C27.4461 9.69996 27.8421 9.66467 28.1078 9.88686C28.3734 10.109 28.4088 10.5051 28.1866 10.7707L26.999 12.1907L28.1866 13.6108ZM30.0062 14.5913C29.872 14.9105 29.5039 15.0607 29.1846 14.9264C28.8653 14.7922 28.7152 14.424 28.8494 14.1048L30.5231 10.1249C30.6573 9.80569 31.0255 9.65549 31.3447 9.78977C31.6639 9.92396 31.8141 10.2921 31.6799 10.6114L30.0062 14.5913ZM12.9296 25.5938C9.79922 25.5938 7.24212 23.0407 7.24212 19.9064C7.24212 16.776 9.79922 14.2189 12.9296 14.2189C16.0638 14.2189 18.617 16.776 18.617 19.9064C18.617 23.0407 16.0638 25.5938 12.9296 25.5938ZM12.9296 24.3389C15.3722 24.3389 17.3621 22.3491 17.3621 19.9064C17.3621 17.4667 15.3722 15.4738 12.9296 15.4738C10.4899 15.4738 8.49703 17.4667 8.49703 19.9064C8.49703 22.3491 10.4899 24.3389 12.9296 24.3389ZM10.1089 20.4929C9.86409 20.248 9.86409 19.8505 10.1089 19.6055C10.3538 19.3607 10.7514 19.3607 10.9963 19.6055L11.9611 20.5704L14.8884 17.9149C15.1449 17.6822 15.542 17.7015 15.7747 17.958C16.0074 18.2145 15.988 18.6116 15.7315 18.8443L12.3616 21.9014C12.1137 22.1262 11.733 22.117 11.4963 21.8804L10.1089 20.4929Z" fill="#317B74"/>
</svg>
