<svg width="48" height="48" viewBox="0 0 48 48" fill="none" xmlns="http://www.w3.org/2000/svg">
<path d="M45.9735 32.5386C47.1856 32.0693 48 30.8747 48 29.566V23.511C48 21.7164 46.54 20.2563 44.7452 20.2563H44.4129C45.3981 18.9808 45.3072 17.1365 44.138 15.9671L39.8565 11.6856C38.9312 10.7604 37.5107 10.4915 36.3216 11.0166C35.6829 11.2988 34.922 11.1564 34.4281 10.6626C33.9343 10.1686 33.7919 9.40771 34.0739 8.76912C34.5992 7.58013 34.3304 6.15952 33.4049 5.23415L29.1235 0.952647C27.8546 -0.316153 25.7896 -0.316341 24.5206 0.952647L5.21704 20.2563H3.25478C1.46005 20.2563 0 21.7164 0 23.511V29.566C0 30.8747 0.8144 32.0694 2.02654 32.5385C2.67755 32.7907 3.11501 33.4294 3.11501 34.1278C3.11501 34.8263 2.67755 35.465 2.02654 35.7171C0.8144 36.1866 0 37.3813 0 38.6898V44.7447C0 46.5393 1.46005 47.9994 3.25478 47.9994H44.7452C46.54 47.9994 48 46.5393 48 44.7447V38.6898C48 37.3813 47.1857 36.1866 45.9736 35.7171C45.3224 35.4649 44.885 34.8263 44.885 34.1278C44.885 33.4294 45.3224 32.7907 45.9735 32.5386ZM26.5171 2.94935C26.6853 2.78117 26.9589 2.78117 27.127 2.94926L31.4084 7.23077C31.5156 7.33797 31.5488 7.49768 31.491 7.62841C30.7416 9.32545 31.1195 11.3472 32.4315 12.6591C33.7435 13.9711 35.7653 14.349 37.4624 13.5995C37.5929 13.5419 37.7528 13.575 37.86 13.6822L42.1414 17.9637C42.3096 18.1318 42.3096 18.4055 42.1415 18.5735L40.4586 20.2563H33.1022L21.1561 8.3102L26.5171 2.94935ZM19.1596 10.3067L29.1093 20.2563H9.20998L19.1596 10.3067ZM2.82353 44.7447V38.6898C2.82353 38.5382 2.91304 38.4017 3.04621 38.3501C4.77619 37.6801 5.93845 35.9833 5.93845 34.1278C5.93845 32.2723 4.77609 30.5755 3.04602 29.9055C2.91294 29.854 2.82353 29.7175 2.82353 29.566V23.511C2.82353 23.2733 3.01704 23.0798 3.25478 23.0798H35.2941V45.1759H3.25478C3.01704 45.1759 2.82353 44.9825 2.82353 44.7447ZM45.1765 29.566C45.1765 29.7175 45.0871 29.854 44.9539 29.9056C43.2239 30.5756 42.0615 32.2724 42.0615 34.1279C42.0615 35.9834 43.2238 37.6802 44.9538 38.3501C45.087 38.4017 45.1765 38.5382 45.1765 38.6898V44.7447C45.1765 44.9824 44.983 45.1759 44.7452 45.1759H38.1176V23.0798H44.7452C44.983 23.0798 45.1765 23.2733 45.1765 23.511V29.566Z" fill="white"/>
<path d="M9.88257 26.8225H31.059V29.646H9.88257V26.8225Z" fill="white"/>
<path d="M9.88257 32.4697H31.059V35.2933H9.88257V32.4697Z" fill="white"/>
<path d="M9.88257 38.1169H31.059V40.9405H9.88257V38.1169Z" fill="white"/>
</svg>
