<svg width="60" height="60" viewBox="0 0 60 60" fill="none" xmlns="http://www.w3.org/2000/svg">
<path d="M30.0009 7.48486C34.8981 7.48486 39.6498 9.149 43.4771 12.2044C47.3044 15.2597 49.9797 19.5249 51.0642 24.3006C52.149 29.0761 51.5788 34.0784 49.4471 38.4875C47.3152 42.8963 43.7486 46.4499 39.3318 48.5653C34.9154 50.6809 29.9109 51.2329 25.1392 50.1306C20.3677 49.0285 16.1123 46.3374 13.071 42.4991C10.0297 38.6607 8.38305 33.9027 8.40102 29.0055C8.419 24.1083 10.1006 19.3627 13.17 15.5468" stroke="#287D7E" stroke-width="3.6" stroke-linecap="round"/>
<path d="M29.9993 15.885C27.446 15.885 24.9473 16.6256 22.8064 18.017C20.6654 19.4083 18.974 21.3908 17.9369 23.7241C16.8999 26.0575 16.562 28.6414 16.9639 31.1631C17.3659 33.6845 18.4905 36.0353 20.2016 37.9306C21.9126 39.8259 24.1366 41.1842 26.604 41.8409C29.0715 42.4978 31.6767 42.4246 34.1033 41.6309C36.5302 40.837 38.6746 39.3562 40.2771 37.3682C41.8793 35.3801 42.8705 32.97 43.1307 30.4299" stroke="#287D7E" stroke-width="3.6" stroke-linecap="round"/>
<path d="M29.9984 33.8848C30.9267 33.8848 31.8354 33.6153 32.6139 33.1094C33.3925 32.6035 34.0076 31.8825 34.3847 31.0341C34.7617 30.1857 34.8846 29.2461 34.7384 28.3291C34.5923 27.4123 34.1833 26.5574 33.5612 25.8681C32.9389 25.1791 32.1301 24.6851 31.233 24.4461C30.3356 24.2073 29.3883 24.2339 28.5059 24.5227" stroke="#287D7E" stroke-width="3.6" stroke-linecap="round"/>
</svg>
