<svg width="40" height="40" viewBox="0 0 40 40" fill="none" xmlns="http://www.w3.org/2000/svg">
<path fill-rule="evenodd" clip-rule="evenodd" d="M34.9573 28.9517C34.9573 32.291 32.2488 34.9997 28.9093 34.9997C25.5698 34.9997 22.8613 32.291 22.8613 28.9517C22.8613 25.6105 25.5698 22.9037 28.9093 22.9037C32.2488 22.9037 34.9573 25.6105 34.9573 28.9517Z" stroke="white" stroke-width="2.55297" stroke-linecap="round" stroke-linejoin="round"/>
<path d="M30.7858 30.5275L28.8737 29.384V26.9269" stroke="white" stroke-width="2.55297" stroke-linecap="round" stroke-linejoin="round"/>
<path d="M18.3336 33.9003C10.8827 33.2985 5.0423 27.0673 5.0423 19.4655C5.0423 11.4875 11.5152 5 19.5078 5C26.8988 5 32.9791 10.5387 33.8518 17.6895" stroke="white" stroke-width="2.55297" stroke-linecap="round" stroke-linejoin="round"/>
<path d="M24.8643 17.9897C24.819 16.7553 24.7135 15.5665 24.5481 14.4377C23.7956 8.92818 21.8233 5 19.5056 5C17.2026 5 15.2158 8.92818 14.4633 14.4377C14.2378 16.0028 14.1178 17.688 14.1178 19.4655C14.1178 21.2415 14.2378 22.9412 14.4633 24.508C14.9904 28.3307 16.6155 32.0188 18.3315 33.9003" stroke="white" stroke-width="2.55297" stroke-linecap="round" stroke-linejoin="round"/>
<path d="M5.0423 19.4828H18.8541" stroke="white" stroke-width="2.55297" stroke-linecap="round" stroke-linejoin="round"/>
</svg>
