<svg width="40" height="40" viewBox="0 0 40 40" fill="none" xmlns="http://www.w3.org/2000/svg">
<path d="M18.844 35C11.1088 34.3757 5.0472 27.9053 5.0472 20.0162C5.0472 11.7346 11.7656 5 20.0635 5C27.7353 5 34.0467 10.7503 34.9532 18.1725" stroke="#287D7E" stroke-width="2.55297" stroke-linecap="round" stroke-linejoin="round"/>
<path d="M25.6262 18.4838C25.5792 17.2027 25.4705 15.9686 25.2987 14.7962C24.517 9.07675 22.4705 5 20.064 5C17.6737 5 15.611 9.07675 14.8294 14.7962C14.5943 16.4211 14.4694 18.1708 14.4694 20.0147C14.4694 21.8583 14.5943 23.6243 14.8294 25.2492C15.3759 29.2173 17.064 33.046 18.8445 35" stroke="#287D7E" stroke-width="2.55297" stroke-linecap="round" stroke-linejoin="round"/>
<path d="M5.0472 20.0294H19.384" stroke="#287D7E" stroke-width="2.55297" stroke-linecap="round" stroke-linejoin="round"/>
<path fill-rule="evenodd" clip-rule="evenodd" d="M29.2966 22.5622L30.7868 25.5622C30.8631 25.7131 31.0075 25.8184 31.1745 25.8427L34.5118 26.3244C34.6463 26.3439 34.768 26.4136 34.8506 26.5222C35.0063 26.7249 34.9836 27.0119 34.7971 27.1871L32.3776 29.5256C32.2545 29.6406 32.1993 29.8109 32.2318 29.9762L32.8106 33.2779C32.8528 33.5519 32.6646 33.8066 32.3923 33.8519C32.2788 33.8682 32.162 33.8504 32.0598 33.8001L29.0875 32.2417C28.9383 32.1606 28.7583 32.1606 28.609 32.2417L25.614 33.8097C25.3641 33.9362 25.0576 33.8422 24.9215 33.5957C24.8696 33.4984 24.8518 33.3849 24.8696 33.2747L25.4485 29.9731C25.4776 29.8092 25.4225 29.6406 25.3025 29.5222L22.8701 27.1839C22.674 26.9876 22.674 26.6666 22.8701 26.4687C22.9528 26.3941 23.0533 26.3456 23.162 26.3261L26.501 25.8412C26.6663 25.8152 26.8106 25.7097 26.8868 25.5591L28.3755 22.5622C28.4355 22.4406 28.5425 22.3482 28.6706 22.3044C28.8003 22.2622 28.9415 22.2719 29.0631 22.3336C29.1636 22.3822 29.2446 22.4634 29.2966 22.5622Z" stroke="#287D7E" stroke-width="2.55297" stroke-linecap="round" stroke-linejoin="round"/>
</svg>
