<svg width="40" height="40" viewBox="0 0 40 40" fill="none" xmlns="http://www.w3.org/2000/svg">
<path d="M18.8186 33.9393C11.3573 33.336 5.5094 27.0957 5.5094 19.485C5.5094 11.4965 11.9913 5 19.9945 5C27.3943 5 33.4838 10.5462 34.3578 17.706" stroke="#287D7E" stroke-width="2.55297" stroke-linecap="round" stroke-linejoin="round"/>
<path d="M25.3612 18.0077C25.3158 16.772 25.2103 15.5816 25.045 14.4513C24.2908 8.93425 22.3173 5 19.995 5C17.689 5 15.6991 8.93425 14.9466 14.4513C14.7196 16.0178 14.5996 17.706 14.5996 19.485C14.5996 21.264 14.7196 22.9668 14.9466 24.5333C15.4737 28.3622 17.1018 32.0548 18.8193 33.9393" stroke="#287D7E" stroke-width="2.55297" stroke-linecap="round" stroke-linejoin="round"/>
<path d="M5.5094 19.5023H19.3393" stroke="#287D7E" stroke-width="2.55297" stroke-linecap="round" stroke-linejoin="round"/>
<path fill-rule="evenodd" clip-rule="evenodd" d="M28.894 34.9985C27.9989 34.9985 23.2975 31.194 23.2975 27.211C23.2975 24.1201 25.803 21.6146 28.894 21.6146C31.985 21.6146 34.4905 24.1201 34.4905 27.211C34.4905 31.194 29.7892 34.9985 28.894 34.9985Z" stroke="#287D7E" stroke-width="2.55297" stroke-linecap="round" stroke-linejoin="round"/>
<path d="M28.8522 27.0674H28.9283" stroke="#287D7E" stroke-width="2.55297" stroke-linecap="round" stroke-linejoin="round"/>
</svg>
